<svg aria-hidden="true" style="position:absolute;width:0;height:0;overflow:hidden" xmlns="http://www.w3.org/2000/svg"><defs><symbol id="icon-antenna" viewBox="0 0 32 32"><path fill="#212121" style="fill:var(--color1, #212121)" d="m30.6 22-8.2-8.3 1-4.6h.8A2.3 2.3 0 1 0 22 7.8l-5 .4L9.1 0h-.9L7 1.8v.5l.4.9A15 15 0 0 0 10 21v7H3.8c-1.4 0-2.8.9-2.8 2.7v1l1 .4h24l.4-.5v-.9c0-1.8-.9-2.7-2.3-2.7h-6.4v-3c.8.2 1.6.2 2.5.2a15 15 0 0 0 7.7-2h-.1l.4 1 .5.4 1.8-1.8v-1zM23.3 6.3l.5-.1a1 1 0 0 1 .4 2 1 1 0 0 1-1-1.8l.1-.1zM22 9.6l-.4 3.2-1.4-1.4L22 9.6zm-.4-1L19.7 11l-1.9-2 3.7-.4zm2.7 20.2c.5 0 1.4 1 1.4 1.8v.5H2.3v-.5c0-.9.4-1.8 1.4-1.8h20.5zm-7.7-2.3V28h-5v-1.4h5zm-5-.9v-4.1c0-1.4.8-2.3 2.2-2.3 1.8 0 2.8 1 2.8 2.3v4.1h-5zm6.3-1.8v-2.3c0-1.8-1.8-3.2-4-3.2-1.5 0-2.4.4-3.3 1.8a14 14 0 0 1-2.3-16L27 23a12.8 12.8 0 0 1-9.2.9zm11-.5-.5-.9L7.8 1.8l.9-.4 21 21-.9 1z"/><path fill="#2196f3" style="fill:var(--color2, #2196f3)" d="M13.7 20.1a1.8 1.8 0 0 0 0 3.2 1.6 1.6 0 1 0 0-3.2zm.5 2.3h-.3a.5.5 0 0 1-.2-1h.2a.5.5 0 0 1 .3 1z"/><symbol id="icon-html-five" viewBox="0 0 32 32"><path d="M1.892 0l2.567 28.801 11.524 3.199 11.554-3.204 2.572-28.796h-28.216zM25.336 26.963l-9.288 2.574v0.015l-0.024-0.007-0.024 0.007v-0.015l-9.288-2.574-2.195-24.609h23.015l-2.195 24.609zM20.336 16.569l-0.408 4.58-3.944 1.065-3.933-1.060-0.252-2.82h-3.547l0.495 5.547 7.252 2.006 7.229-2.006 0.97-10.844h-12.874l-0.322-3.617h13.517l0.316-3.532h-17.694l0.953 10.681z"></path></symbol></symbol><symbol id="icon-menu_40px" viewBox="0 0 32 32"><path d="M6.4 11.733V9.6h19.2v2.133H6.4zm0 5.334h19.2v-2.133H6.4v2.133zm0 5.333h19.2v-2.133H6.4V22.4z"/></symbol><symbol id="icon-close_40px" viewBox="0 0 32 32"><path d="M23.733 10.304 22.229 8.8l-5.963 5.963L10.303 8.8l-1.504 1.504 5.963 5.963-5.963 5.963 1.504 1.504 5.963-5.963 5.963 5.963 1.504-1.504-5.963-5.963 5.963-5.963z"/></symbol><symbol id="icon-check" viewBox="0 0 42 32"><path fill="#fff" style="fill:var(--color1, #fff);stroke:var(--color1, #fff)" stroke="#fff" stroke-width=".64" d="m6.263 15.205-.22-.21-3.307 3.132 11.651 11.114L38.864 5.89l-3.285-3.134-21.192 20.197-8.124-7.75z"/></symbol><symbol id="icon-astronaut" viewBox="0 0 32 32"><path fill="#2196f3" style="fill:var(--color2, #2196f3)" d="m32 4.6-.5-.5-1.8-.4-.9-1.4h-1L27 3.7 25 4a.5.5 0 0 0-.2 1L26 6.3l-.5 1.8v.3a.5.5 0 0 0 1 .2l1.7-1 1.9 1c.2 0 .4-.2.4-.5V6.4L32 5v-.4zm-2.3 1.3-.4.5.4 1-1.4-.5a.5.5 0 0 0-.4 0l-1 .4.5-.9L26.1 5h1.3l.5-.4.4-1 .5 1 .5.4h.9l-.5 1zm-3.6 14.7h-1v.9h1v-1zm0 2.3h-1v.9h1v-1zm1.3-1.4h-1.3v1.4h1.3v-1.4zm-2.3 0h-.9v1.4h1v-1.4zm-2.7 5h-1v1h1v-1zm0 1.8h-1v1.4h1v-1.4zm1-.9h-1v1h1v-1zm-2 0h-1.3v1h1.4v-1zM16 24.2h-1v1h1v-1zm0 2.3h-1v1h1v-1zm1-1.4h-1v1.4h1v-1.4zm-2 0h-1.3v1.4h1.4v-1.4zM6 6H4.5v1.4h1.3V6zm0 2.3H4.5v1h1.3v-1zm.9-.9h-1v1h1v-1zm-2.3 0h-1v1h1v-1z"/><path fill="#212121" style="fill:var(--color1, #212121)" d="m24.7 14.2-1.4-1-.9.5-1.4 1-1.8 1.3-1.4-.5a6.9 6.9 0 0 0-3.2-13.2 6.9 6.9 0 0 0-5.4 11H5.8l-3.2 1.3-1.8 1a1.8 1.8 0 1 0 1.9 3.1l1.3-.9 2.3-.9h1.4L.9 23.8A1.8 1.8 0 0 0 1 26a1.8 1.8 0 0 0 2.3 0l1.4-1.4 1.8-1.4 1 1L4 27.3a1.8 1.8 0 0 0 0 2.3 1.8 1.8 0 0 0 2.3 0l4.6-4.6 5-5.4 3.7.4h.4l3.2-2.3 1.4-1.3v-2.3zM2.3 17.8h-1a1 1 0 0 1 0-1.3l1.4-.5.5 1v.4l-1 .4zM5.5 16 4 17l-.4-1v-.5l1.8-.9V16zm15-6.9-.4 2.8L16 10l-1-1.4 1.5-5c2.7.9 4 3.2 4 5.4zm-11.4 0a6 6 0 0 1 6.5-5.4l-1.4 4.5a2 2 0 0 0-1.9 1.9 1.8 1.8 0 0 0 3.2.9l4.2 1.8A6 6 0 0 1 9 9.2zm6 1-1 .9-.8-1 .9-.9.9 1zM2.3 25h-.5a.5.5 0 0 1 0-.9l1-.9.4 1-1 .8zm3.2 3.7H5a.5.5 0 0 1 0-1l1-.8.9.9-1.4.9zM9 25.6 7.3 27H7l-.5-.5 1.8-1.8v-1L6.4 22h-.5l-1.8 1.4-.9-.9 2.7-2.3 4.2 4.6-1 .9zm6.9-7.3c-.3 0-.5.2-.5.4l-4.5 5-4.6-4L9 16.5a.5.5 0 0 0 0-1H7v-1.3h3a6.8 6.8 0 0 0 6 1.8h.5l2.2 1.4v.4l.5 1-3.2-.5zm4.1.4-.4-1.8L21 16l.5.5.4.9-1.8 1.3zm3.7-3.2-1 1L22 15l1-.5h.4a1 1 0 0 1 .5 1z"/><path fill="#212121" style="fill:var(--color1, #212121)" d="m13.7 18.7-2.3-2.2h-.9l-1.8 2.2v.5l1.8 2.3a.5.5 0 0 0 1 0l2.2-2.3v-.5zM11 20.1l-1.4-1.4 1.4-1.3 1.3 1.3-1.3 1.4zm6.4-15-.5.8s1.8.5 1.8 2.3h1c0-1.8-1.9-2.7-2.3-3.2zm2.3 4h-1v1.4h1V9.1z"/></symbol><symbol id="icon-clock" viewBox="0 0 32 32"><path fill="#212121" style="fill:var(--color1, #212121)" d="M31.086 15.086C30.944 6.864 24.245.253 16.002.253 7.67.253.916 7.007.916 15.339c0 6.698 4.365 12.376 10.405 14.346l.107.03h.457l.457-.457 3.657-11.886a1.885 1.885 0 1 0-.927-3.655l.013-.003-5.029-5.029a.645.645 0 0 0-1.103.457c0 .179.072.34.189.457l5.029 5.029c-.457.457 0 1.829.457 2.286l-3.657 11.429C5.4 26.35 1.485 21.116 1.485 14.969 1.485 7.142 7.83.798 15.656.798s14.171 6.345 14.171 14.171c0 5.715-3.383 10.639-8.255 12.881l-.088.036v-1.829a.686.686 0 1 0-1.372 0l-3.657 3.2a.686.686 0 1 0 0 1.372L21.484 32a.645.645 0 0 0 1.103-.457.643.643 0 0 0-.189-.457l-.457-1.829c5.486-2.286 9.143-7.771 9.143-14.171zM16 14.629a.686.686 0 1 1 0 1.372.686.686 0 1 1 0-1.372zm2.286 15.085 1.829-2.286.914 3.2-2.743-.914z"/><path fill="#2196f3" style="fill:var(--color2, #2196f3)" d="M15.543 3.2v1.371a.458.458 0 0 0 .914 0V3.2a.458.458 0 0 0-.914 0zM3.657 14.629a.686.686 0 1 0 0 1.372h1.371a.686.686 0 1 0 0-1.372H3.657zM27.886 16a.686.686 0 1 0 0-1.372h-.914a.686.686 0 1 0 0 1.372h.914z"/></symbol><symbol id="icon-diagram" viewBox="0 0 32 32"><path fill="#2196f3" style="fill:var(--color2, #2196f3)" d="M15.086 15.086H16v4.571h-.914v-4.571zm4.114 1.828h.914v2.743H19.2v-2.743zm-8.686 1.829h1.371v.914h-1.371v-.914zm-3.2-.457h1.371v1.371H7.314v-1.371z"/><path fill="#212121" style="fill:var(--color1, #212121)" d="M1.371 28.343h25.6c.914 0 1.829-.914 1.829-1.829v-1.829c0-.914-.914-1.829-1.829-1.829h-.457V9.599l3.2-2.743a1.83 1.83 0 1 0-.91-.903l-.005-.011-2.286 2.286V6.857c0-.914-.457-1.371-1.371-1.371H3.656c-.914 0-1.371.457-1.371 1.371v16h-.914c-.457 0-1.371.914-1.371 1.829v1.829c0 .914.914 1.829 1.371 1.829zm28.8-23.314a.458.458 0 0 1 0 .914.458.458 0 0 1 0-.914zM3.2 6.857l.457-.457h21.486l.457.457v2.286l-.914.914V8.228l-.914-.914h-19.2l-.457.914v13.257l.457.457h19.2l.914-.457v-9.6l.914-1.371v12.343H3.2v-16zm4.571 6.857a1.533 1.533 0 1 0 1.379 2.738l-.009.004 1.829.914h.457l4.114-4.571 3.657 3.2h.914l3.2-3.2v8.229H5.483V8.685h17.829v2.743l-3.657 3.2-3.657-2.743h-.914l-4.114 4.571-1.371-.914c0-.914-.914-1.829-1.829-1.829zm.915 1.829a.686.686 0 1 1-1.372 0 .686.686 0 1 1 1.372 0zm3.2 8.686h5.029v.457l-.457.457h-4.114l-.457-.457v-.457zm-10.972.457.457-.457h9.143v.457c0 .914.914 1.371 1.829 1.371h4.114c.914 0 1.829-.457 1.829-1.371v-.457h8.686l.914.457v1.829l-.914.914h-25.6l-.457-.914v-1.829z"/></symbol><symbol id="icon-envelope" viewBox="0 0 43 32"><path d="M38.7 0H4a4 4 0 0 0-4 4v24a4 4 0 0 0 4 4h34.7a4 4 0 0 0 4-4V4a4 4 0 0 0-4-4zm0 2.7h.5L21.3 18.3 3.5 2.8l.5-.1h34.7zm0 26.6H4c-.7 0-1.3-.6-1.3-1.3V5.6L20.5 21c.2.2.5.3.8.3s.7 0 1-.3L40 5.6V28c0 .7-.6 1.3-1.3 1.3z"/></symbol><symbol id="icon-facebook" viewBox="0 0 32 32"><path d="M20.8 4.8H24V0h-4.8c-3.2 0-6.4 3.2-6.4 8v4.8H8v4.8h4.8V32h6.4V17.6h3.2l1.6-4.8h-4.8V8l1.6-3.2z"/></symbol><symbol id="icon-instagram" viewBox="0 0 32 32"><path d="M32 9.6V4.8l-3.2-1.6-1.6-1.6L22.4 0C16.1 0 10.1.6 4.1 1.7l.7-.1-3.2 3.2L0 9.6c0 6.3.6 12.3 1.7 18.3l-.1-.7 3.2 3.2L9.6 32c6.3-.1 12.4-.7 18.3-1.7l-.7.1 4.8-3.2v-4.8l.2-6.4-.2-6.7v.3zm-3.2 12.8v3.2l-3.2 3.2h-3.2a108.3 108.3 0 0 1-16.4 0h.4l-3.2-3.2v-3.2A108.3 108.3 0 0 1 3.2 6v.4l3.2-3.2h3.2a115.1 115.1 0 0 1 16.4 0h-.4l3.2 3.2v3.2L29 16l-.2 6.7v-.3z"/><path d="M16 8a8 8 0 0 0 0 16 8 8 0 0 0 0-16zm0 12.8a4.8 4.8 0 1 1 0-9.6 4.8 4.8 0 1 1 0 9.6zM27.2 8a2.4 2.4 0 0 1-4.8 0 2.4 2.4 0 0 1 4.8 0z"/></symbol><symbol id="icon-linkedin" viewBox="0 0 32 32"><path d="M32 32V20.8c0-6.4-1.6-11.2-8-11.2l-6.4 3.2v-1.6h-6.4V32h6.4V20.8c0-1.6 1.6-4.8 4.8-4.8s3.2 3.2 3.2 4.8V32H32zM0 11.2h6.4V32H0V11.2zM3.2 0 0 3.2C0 6.4 1.6 8 3.2 8 6.4 8 8 6.4 8 3.2 8 1.6 6.4 0 3.2 0z"/></symbol><symbol id="icon-logo1" viewBox="0 0 57 32"><path d="M20.3 3.7 24 7.3h-7v17.1h18.2V18l3.7 3.5V3.7H20.3zM35 17.5l-10.6-10H35v10zm-3.3 4.4H20V10.4h.9V21h11v.8zm-9 4.8-.4 1-.4-1h-.4L22 28v.7h.4V28l.6-1.2h-.4zm.6 2 .1-.5h.8l.1.4h.4l-.8-1.9h-.3l-.7 2h.4zm.5-1.6.3.8h-.6l.3-.8zm1.7.8v.2l.1.4.5.1.5-.1v.1h.4l-.2-.3.1-.6h-.3v.4l-.4-.5h.1l.2-.3v-.5l-.4-.1-.3.1-.2.4v.2l.2.2-.3.3zm.9.4h-.5l-.1-.2.1-.3.5.5zm-.4-.9V27h.3v.3h-.1l-.2.1zm3.1 1c.2 0 .2-.2.3-.4H29l-.1.3h-.6l-.1-.6v-.1l.1-.5.3-.1h.3l.1.3h.4c0-.2-.1-.3-.3-.4l-.5-.2-.4.1-.3.3v1.1l.3.3.4.1.5-.1zm2-.2v-1.1c0-.2-.2-.2-.3-.3l-.4-.1a1 1 0 0 0-.4.1c-.2 0-.2.2-.3.3l-.1.5v.6c0 .1.2.3.4.3l.4.1h.4l.3-.4zm-.4-1 .1.4v.6l-.4.2c-.2 0-.3 0-.4-.2v-1.1l.4-.1.3.1z"/></symbol><symbol id="icon-logo2" viewBox="0 0 57 32"><path d="M26.7 3.2H26a12.6 12.6 0 0 0-.7 0c-2 0-3.9.6-5.6 1.4l-.3.1v11.8l.6-.2a20.6 20.6 0 0 1 5.8-1V17h-.6a17.2 17.2 0 0 0-7.3 2V3.8a15.8 15.8 0 0 1 8-2.2h.3a15.8 15.8 0 0 1 2.7.3v1.6a12 12 0 0 0-1.8-.3h-.5zm2.7 1.5h1a16.7 16.7 0 0 0 8.1-2v14.9a15.9 15.9 0 0 1-11 1.8v-15a11.4 11.4 0 0 0 2 .3zm7.6.1-.6.2-1.5.5a18.2 18.2 0 0 1-5.4.5H29v12h.4l1 .1a14.4 14.4 0 0 0 6.4-1.4l.2-.1V4.8zM19 24.1l-.2-.2H18a.8.8 0 0 0-.5.8v2.5l.3.2.3.2h.6a.9.9 0 0 0 .5-.8v-.3h-.5v.4l-.1.1h-.2a.3.3 0 0 1-.2 0v-2.5h.1l.2-.1.2.1v.5h.6v-.2a1 1 0 0 0-.2-.7zm3.2-.1a1 1 0 0 0-1 0H21l-.2.4V27l.2.3.3.1.3.1h.3a.9.9 0 0 0 .5-.5v-2.6l-.2-.3zm-.2 2.7a.4.4 0 0 1-.2.3.4.4 0 0 1-.4 0 .4.4 0 0 1-.2-.3v-2a.4.4 0 0 1 .2-.2.4.4 0 0 1 .4 0 .4.4 0 0 1 .2.3v2zm4.3.9v-3.7h-.5l-.6 2-.7-2H24v3.7h.5v-2.3L25 27h.3l.5-1.6v2.3h.5zm3-3.4L29 24l-.4-.1H28v3.7h.5V26h.7l.3-.3.1-.4a2.5 2.5 0 0 0 0-1l-.2-.2zm-.3 1v.3l-.1.1h-.5v-1.2h.5l.1.2v.7zm2.8-1.3h-.4l-.8 3.7h.5l.1-.8h.7l.2.8h.5l-.8-3.7zm-.5 2.4.3-1.3.2 1.3h-.5zm3.9-.2-.8-2.2h-.5v3.7h.5v-2.2l.8 2.2h.5v-3.7h-.5v2.2zm3.2-2.2-.4 1.5-.5-1.5H37l.7 2.1v1.6h.5V26l.8-2h-.5zm-20.8 4.7h.3v.7h.1v-.7h.3v-.1h-.7v.1zm2.1-.1-.3.8h.2v-.2h.4v.2h.2l-.3-.8h-.2zm0 .5.1-.3.1.3h-.2zm2.1 0h.2v.1h-.4v-.2c0-.2 0-.3.2-.3h.1l.1.1h.2c0-.2-.2-.3-.4-.3-.1 0-.2 0-.3.2a.4.4 0 0 0-.1.3l.1.3a.4.4 0 0 0 .3.1l.4-.1v-.3h-.4v.1zm2.2-.5h-.2v.8h.6v-.1H24v-.7zm1.8 0h-.2v.8h.2v-.8zm1.7.5-.3-.5H27v.8h.2v-.5l.3.5h.2v-.8h-.2v.5zm1.6 0h.5v-.2H29v-.2h.5v-.1H29v.8h.6v-.1h-.5v-.3zm3.9-.2h-.3v-.3h-.2v.8h.2V29h.3v.4h.2v-.8H33v.3zm1.6.2h.5v-.2h-.5v-.2h.5v-.1h-.6v.8h.6v-.1h-.5v-.3zm2.2 0c.2 0 .2-.2.2-.3a.2.2 0 0 0 0-.2h-.7v.8h.2V29h.2l.2.3h.2l-.1-.2-.2-.2zm-.2-.2v-.2h.2v.2h-.2zm1.9.2h.4v-.2h-.4v-.2h.4v-.1h-.6v.8h.6v-.1h-.4v-.3z"/></symbol><symbol id="icon-logo3" viewBox="0 0 57 32"><path d="m19.4 26.2.2.1-.3.2-.5.1h-.4a1 1 0 0 1-.4-.3l-.2-.3v-.8l.2-.3.4-.2a1.4 1.4 0 0 1 .9 0l.3.2-.1.1h-.4a.8.8 0 0 0-.2-.1 1.1 1.1 0 0 0-.5 0l-.2.2-.2.2v.6a.7.7 0 0 0 .4.4h.5a.7.7 0 0 0 .4-.1zm3.4-.6-.1.4-.2.3-.4.2c-.3.1-.6.1-.8 0a1 1 0 0 1-.4-.2.9.9 0 0 1-.2-.3 1 1 0 0 1 0-.8l.2-.3.4-.2h.8l.4.2a1 1 0 0 1 .3.7zm-.3 0v-.3a.7.7 0 0 0-.5-.4 1 1 0 0 0-.6 0l-.3.2-.1.2v.6a.6.6 0 0 0 .4.4h.6l.3-.1.1-.3v-.3zm2.5.4h.1v-.1l.8-1.2h.4v1.9H26V25l-.8 1.1v.1H25l-.8-1.3v.1c0 .1 0 0 0 0v1.5h-.3v-2h.3v.1L25 26zm2.9-.1v.7h-.3v-2h.6l.4.1.2.1.2.2v.3a.5.5 0 0 1-.2.4l-.2.1h-.7zm0-.2h.5l.2-.2h.1V25a.6.6 0 0 0-.5-.1H28v.8zm3.9.9h-.3l-.3-.5h-1l-.2.4h-.3l.9-1.8h.3l.9 1.9zm-1.5-.7h.9l-.4-.8v-.2.1l-.1.1-.4.8zm2.7-1.2 1.3 1.5V26c0-.1 0 0 0 0v-1.4h.3v1.9h-.2L33 25v1.5h-.3v-2h.2zm3.7 1.1v.8h-.2v-.8l-.8-1.1h.3l.5.8.1.1v-.1l.6-.8h.4l-.9 1.1zM25 21.5h.3c2-.8 3.6-2 4.8-3.6s1.7-3.4 1.7-5.3l-2.2-1.8c.5 2 .2 4-.6 5.9s-2.2 3.5-4 4.8z"/><path d="M24.2 21.4c2-1.2 3.5-3 4.3-5s1-4 .4-6.1l-3-2.7a11.5 11.5 0 0 1-1.7 13.8zm10.4-6.6c-.5 2-1.8 4-3.6 5.3-.6.4-1.1.8-1.8 1 1.5-.3 3-1 4-1.9s2-2 2.6-3.3l-1.2-1z"/><path d="M34.1 14.5 32.3 13c0 1.8-.6 3.5-1.6 5s-2.6 2.7-4.4 3.5h1.2c1.7-.6 3.2-1.6 4.3-2.8s2-2.6 2.3-4.2zm-9.7-8-2.1-1.9c-2 .7-3.5 1.8-4.7 3.3s-1.8 3.1-1.8 4.9c0 2 .8 3.8 2.2 5.4s3.3 2.6 5.5 3c2-2 3-4.5 3.2-7.2s-.6-5.3-2.3-7.5zM39 14.3c0-2.4-1-4.6-3-6.2s-4.4-2.6-7-2.6c-1.3 0-2.5.2-3.7.6l13 11.3c.5-1 .7-2 .7-3.1z"/></symbol><symbol id="icon-logo4" viewBox="0 0 57 32"><path d="M12.9 11.3c-1.3 0-2.3.9-2.3 2 0 1.2 1 2 2.3 2 1.3 0 2.3-.8 2.3-2 0-1.1-1-2-2.3-2zm17.1-.7c0-1.6-.7-3.1-2-4.2a7.3 7.3 0 0 0-9.5 0 5.7 5.7 0 0 0-2 4.2v8.7S30 18 30 10.6zM5.9 22.2c0 1 .5 2.1 1.3 2.9s2 1.2 3.3 1.2c1.3 0 2.4-.4 3.3-1.2s1.4-1.8 1.4-3v-6s-9.3 1-9.3 6zm4.6 1-.6-.1a1 1 0 0 1-.6-1.2c0-.2.2-.4.4-.5.1-.2.4-.3.6-.3h.7l.5.5c.1.2.3.3.3.6l-.1.4a1 1 0 0 1-.3.3l-.4.3h-.5zm9.5-.6h-1v1h-.4v-2.3H20v.4h-1v.6h.9v.3zm2.2-.1-.1.6-.4.4a1 1 0 0 1-.5.1l-.5-.1c-.2-.1-.2-.2-.3-.4l-.1-.6v-.7a.9.9 0 0 1 1-.5l.4.1.4.4.1.6zm-.5-.1v-.6c0-.2-.3-.1-.5-.1l-.3.1-.2.6c0 .3 0 .5.2.6l.3.2c.2 0 .3 0 .4-.2l.1-.5v-.1zm2 .6v-.2l-.4-.2-.4-.1c-.2-.2-.4-.4-.4-.6l.1-.3.3-.2.5-.1h.4l.3.3.1.4h-.5v-.3H23l-.1.2.1.2.3.1.6.3.2.5c0 .2 0 .3-.2.4a1 1 0 0 1-.6.2h-.5c-.1-.2-.3-.2-.3-.4l-.1-.3h.4c0 .2.2.3.5.3h.2l.1-.2zm2.5-1.3h-.7v1.9h-.4v-2h-.7v-.3h1.8v.4zm1.7.9h-1v.6H28v.4h-1.5v-2.3H28v.4h-1v.5h.9v.4zm1.2.1h-.3v.9h-.5v-2.3h.8c.3 0 .5 0 .7.2s.2.3.2.5l-.1.4-.3.2.5 1h-.5l-.5-.9zm-.3-.3h.3l.3-.1.1-.3v-.2l-.4-.1h-.3v.7zm2.8.4v.8h-.5v-2.3h1l.4.1.3.3v.4l-.1.5a1 1 0 0 1-.7.2h-.4zm0-.4h.7l.1-.3v-.3l-.4-.1h-.4v.7zm3 .2h-1v.6h1.1v.4h-1.5v-2.3h1.5v.4h-1v.5h.9v.4zm2.1-1h-.6v2h-.5v-2h-.7v-.3h1.8v.4zm1.7 1h-1v.6h1.1v.4H37v-2.3h1.5v.4h-1v.5h.9v.4zm1.3.1h-.4v.9h-.5v-2.3h.9c.2 0 .4 0 .6.2s.2.3.2.5l-.1.4-.3.2.5 1H40l-.4-.9zm-.4-.3h.4l.2-.1.1-.3v-.2l-.3-.1h-.4v.7zm2.7.6v-.2l-.4-.2-.4-.1c-.2-.2-.4-.4-.4-.6l.1-.3.3-.2.5-.1h.4l.3.3.1.4H42v-.3h-.6l-.1.2.1.2.3.1.6.3.2.5c0 .2 0 .3-.2.4a1 1 0 0 1-.6.2h-.5a.7.7 0 0 1-.4-.7h.4c0 .2.2.3.5.3h.2l.1-.2z"/></symbol><symbol id="icon-profile" viewBox="0 0 32 32"><path d="M16 16c4.42 0 8-3.58 8-8s-3.58-8-8-8-8 3.58-8 8 3.58 8 8 8zm0 4c-5.34 0-16 2.68-16 8v2c0 1.1.9 2 2 2h28c1.1 0 2-.9 2-2v-2c0-5.32-10.66-8-16-8z"/></symbol><symbol id="icon-email-black" viewBox="0 0 32 32"><path d="M26.667 5.333H5.334A2.663 2.663 0 0 0 2.681 8l-.013 16c0 1.467 1.2 2.667 2.667 2.667h21.333c1.467 0 2.667-1.2 2.667-2.667V8c0-1.467-1.2-2.667-2.667-2.667zM26.133 11l-9.427 5.893a1.346 1.346 0 0 1-1.413 0L5.866 11a1.132 1.132 0 1 1 1.2-1.92l8.933 5.587 8.933-5.587a1.132 1.132 0 1 1 1.2 1.92z"/></symbol><symbol id="icon-smartphone" viewBox="0 0 20 32"><path d="M17 0H3a3 3 0 0 0-3 3v26a3 3 0 0 0 3 3h14a3 3 0 0 0 3-3V3a3 3 0 0 0-3-3zM3 2h14c.6 0 1 .4 1 1v21H2V3c0-.6.4-1 1-1zm14 28H3a1 1 0 0 1-1-1v-3h16v3c0 .6-.4 1-1 1z"/><path d="M4.7 27.5c.4.3.4 1 0 1.3s-1 .4-1.4 0c-.4-.4-.4-1 0-1.3s1-.4 1.4 0z"/></symbol><symbol id="icon-send" viewBox="0 0 32 32"><path fill="#fff" style="fill:var(--color1, #fff)" d="M32 0 0 18l10.227 3.788L26 7 14.002 23.186l.01.004-.012-.004V32l5.735-6.691L27 28l5-28z"/></symbol><symbol id="icon-phone-black" viewBox="0 0 32 32"><path d="m24.882 19.773-3.268-.373a2.561 2.561 0 0 0-2.11.733L17.137 22.5a19.357 19.357 0 0 1-8.478-8.478l2.38-2.38a2.561 2.561 0 0 0 .733-2.11l-.373-3.242a2.575 2.575 0 0 0-2.56-2.277H6.613c-1.454 0-2.663 1.209-2.573 2.663.682 10.987 9.469 19.761 20.443 20.443 1.454.09 2.663-1.119 2.663-2.573V22.32a2.55 2.55 0 0 0-2.264-2.547z"/></symbol><symbol id="icon-logo5" viewBox="0 0 57 32"><path d="m14.3 23.9.2.5-.1.3-.2.3c-.3.2-.6.3-1 .3h-1.5V22h1.5c.3 0 .6 0 .9.2l.2.3v.8l-.6.3c.3 0 .4.1.6.3zm-1.8-.5h.6l.4-.1.1-.2v-.5a.7.7 0 0 0-.5-.1h-.6v.9zm1 1.2.2-.1V24l-.1-.1a.7.7 0 0 0-.5-.2h-.6v1h.6c.2 0 .4 0 .5-.2zm3.9.7-.9-1.3h-.3v1.3h-.7V22h1.4c.3 0 .6 0 1 .3l.2.6c0 .2 0 .5-.2.7l-.6.4.9 1.3h-.8zm-1.2-1.8h.6c.4 0 .6-.1.6-.5a.5.5 0 0 0-.1-.3.7.7 0 0 0-.5-.2h-.6v1zm5.1 1.1H20l-.3.7H19l1.3-3.3h.8l1.4 3.3h-.8l-.3-.7zm-.2-.5-.5-1.4-.5 1.4h1zm5.2 1.2h-.7L24 23v2.3h-.8V22h.8l1.6 2.2V22h.7v3.3zm4.1-.8-.6.6-1 .2h-1.3V22h1.3c.3 0 .7 0 1 .2.2.1.5.3.6.6.2.2.2.5.2.8l-.2.9zm-.8 0 .3-.9c0-.3-.1-.5-.3-.8-.3-.2-.6-.3-1-.2h-.4v2h.5c.3.1.6 0 .9-.2zM21.8 3.6s9.3 3.2 9 7.9v7.8s-9.2-3.2-9-7.8V3.6zm17.4 13.9c1.7-1.1 3.8-1.8 5.9-2V13a12 12 0 0 0-6 4.5z"/><path d="M38.1 18.2c1.5-2.6 4-4.7 7-5.7v-7S31.8 10 32 16.5v11.2l1.5-.5v-1.1c.4-3.1 2-6 4.5-8z"/><path d="M36.9 22.4c0-.8.2-1.5.4-2.3a10.4 10.4 0 0 0-2.8 6.8l2.6-1.2c-.3-1.1-.3-2.2-.2-3.3zm.5 0c-.1 1 0 2 .2 3 3.6-2 7.6-5 7.5-8.8v-.3c-2.6.3-5 1.3-6.9 3-.4 1-.7 2-.8 3.1z"/></symbol><symbol id="icon-person-black" viewBox="0 0 32 32"><path d="M16 16c2.947 0 5.333-2.387 5.333-5.333S18.946 5.334 16 5.334c-2.947 0-5.333 2.387-5.333 5.333S13.054 16 16 16zm0 2.667c-3.56 0-10.667 1.787-10.667 5.333v1.333c0 .733.6 1.333 1.333 1.333h18.667c.733 0 1.333-.6 1.333-1.333V24c0-3.547-7.107-5.333-10.667-5.333z"/></symbol><symbol id="icon-logo6" viewBox="0 0 57 32"><path d="M28.5 14.6c-.2-.3-.4-.7-.3-1V12c0-.5 0-.8.3-1s.6-.4 1-.4c.6 0 1 0 1.1.3.3.3.4.6.3 1v.3h-.8v-.8l-.2-.2h-.6l-.2.3v2.2l.1.5.2.2h.5l.1-.3v-.8h1v.4c0 .3-.1.7-.4 1-.2.2-.5.3-1 .3s-.9-.1-1.1-.4zm3.6 0c-.2-.2-.3-.6-.3-1V12c0-.5.1-.8.3-1s.6-.4 1.1-.4c.6 0 1 .1 1.1.3.3.3.4.6.4 1v1.7c0 .4-.1.8-.4 1s-.5.4-1 .4c-.6 0-1-.1-1.2-.4zm1.6-.4v-2.9l-.2-.1H33l-.2.1v3h.2l.2.1h.3l.2-.1zm2-3.6h1l.7 3 .7-3h1V15h-.7v-3l-.7 3H37l-.7-3v3h-.8l.1-4.3zm4.5 0h1.4c.9 0 1.3.4 1.3 1.2 0 .8-.4 1.2-1.3 1.2H41v2h-1v-4.4zm1.2 1.9a.7.7 0 0 0 .5-.2l.2-.5v-.3l-.2-.2a1 1 0 0 0-.5-.1h-.3v1.3h.3zm2.8-1.9h1l1 4.3h-.9l-.2-1h-.8l-.2 1h-.9l1-4.3zm.8 2.8-.3-1.8-.3 1.8h.7zm2-2.8h.6l1.2 2.5v-2.5h.8V15H49l-1.2-2.5V15H47v-4.3zm4.4 2.7-1-2.7h.8l.6 1.7.6-1.7h.8l-1 2.7v1.6h-.8v-1.6zm-21.5 3.5v.2h-.7v1.8h-.4V17h-.7v-.2h1.8zm2.3 2H32l-.3-.5h-1l-.2.4v.1H30l.9-2h.3l1 2zm-1.5-.7h.9l-.4-.8V17H31v.2l-.4.8zm3.1.5h.1a1 1 0 0 0 .3 0l.1-.1V18H34v-.2h.6v.8a1.4 1.4 0 0 1-.6.2h-.7l-.4-.3a1 1 0 0 1-.2-.3l-.1-.4v-.4l.3-.3.4-.2a1.6 1.6 0 0 1 .7 0 1.2 1.2 0 0 1 .6.2h-.1v.1h-.2l-.1-.1a1.2 1.2 0 0 0-.8 0c-.1 0-.2 0-.3.2l-.1.2v.7l.1.2.3.2h.4zm2.9 0h1v.2h-1.3v-2h.3v1.8zm2 .2h-.3v-2h.3v2zm1.1-2 1.4 1.6v-1.6h.3v2h-.3l-1.3-1.5v1.5h-.3v-2h.2zm4 0v.2h-1.1v.7h.8v.2h-.8v.7h1v.2h-1.4v-2h1.5zM11.3 4.6 25 8v11.8l-13.7-3.4V4.6zm-.9-1V17l15.5 3.8V7.4L10.4 3.6z"/><path d="M18.7 27 3.2 23.2V9.8l15.5 3.8V27z"/><path d="m10.7 4.5 13.5 3.3-5.7 5L4.9 9.4l5.8-5zm-.3-.9L3.2 9.8l15.5 3.8L26 7.4 10.4 3.6zm9.2 22.7 6.3-5.5-6.3-1.5v7z"/></symbol><symbol id="icon-twitter" viewBox="0 0 32 32"><path d="M32 6.4h-3.2l1.6-3.2-3.2 1.6A6.5 6.5 0 1 0 16 11.2C9.6 11.2 4.8 8 1.6 4.8a6.4 6.4 0 0 0 3.2 8H1.6c0 3.2 1.6 4.8 4.8 6.4a6.2 6.2 0 0 1-3.2 0C4.8 20.8 6.4 24 9.6 24a12.7 12.7 0 0 1-9.7 1.6H0l9.6 3.2c10.6 0 19.2-8.6 19.2-19.2L32 6.4z"/></symbol><symbol id="icon-cross" viewBox="0 0 32 32"><path d="M32 3.223 28.777 0 16 12.777 3.223 0 0 3.223 12.777 16 0 28.777 3.223 32 16 19.223 28.777 32 32 28.777 19.223 16 32 3.223z"/></symbol></defs></svg>